<svg xmlns="http://www.w3.org/2000/svg" xmlns:xlink="http://www.w3.org/1999/xlink" xmlns:inkscape="http://www.inkscape.org/namespaces/inkscape" version="1.1" width="1000" height="1000" viewBox="0 0 1000 1000">
<defs>
<clipPath id="clip_0">
<path transform="matrix(1,0,0,-1,0,1000)" d="M0 1000H1000V0H0Z"/>
</clipPath>
</defs>
<g inkscape:groupmode="layer" inkscape:label="Layer 1">
<g clip-path="url(#clip_0)">
<path transform="matrix(1,0,0,-1,524.9052,371.21058)" d="M0 0-12.568 5.969-.801 38.554-33.701 34.187-40.811 52.432-57.746 30.814-53.864 79.85-72.74 64.345-93.049 103.7-113.211 64.685-131.433 79.85-127.721 30.474-145.142 52.748-152.421 35.011-183.695 37.753-173.384 6.769-185.637 .169-185.366-.048C-183.742-1.353-182.798-3.323-182.798-5.405V-172.341L-150.674-140.24V-28.073L-93.268-103.701-34.647-27.854V-140.217L-2.523-172.341V-5.321C-2.523-3.259-1.597-1.306 0 0" fill="#3566b1"/>
<path transform="matrix(1,0,0,-1,660.7314,567.5866)" d="M0 0H-41.95L-125.367 86.85-48.525 170.303H-8.637V169.332L-84.289 87.833Z" fill="#404041"/>
<path transform="matrix(1,0,0,-1,297.3935,592.7204)" d="M0 0V-73.939H-19.45V-44.899L-39.173-72.712H-39.31L-59.079-44.899V-73.939H-78.529V0H-70.713L-39.265-43.082-7.816 0Z" fill="#3566b1"/>
<path transform="matrix(1,0,0,-1,350.8281,643.89236)" d="M0 0-7.498 17.361-15.043 0ZM6.181-14.224H-21.177L-24.904-22.768H-46.173L-12.135 51.398H-2.909L31.176-22.768H9.862Z" fill="#3566b1"/>
<path transform="matrix(1,0,0,-1,425.8584,619.16958)" d="M0 0C0 4.454-3.726 7.816-8.907 7.816H-17.133V-7.954L-8.907-7.999C-3.681-8.044 0-4.498 0 0M-36.583 25.768H-8.907C6.18 25.768 18.768 14.407 18.768 .092 18.768-14.043 6.454-25.903-8.907-25.903H-17.133V-47.49H-36.583Z" fill="#3566b1"/>
<path transform="matrix(1,0,0,-1,500.3506,648.39028)" d="M0 0V-18.27H-47.49V54.988H-28.04V0Z" fill="#3566b1"/>
<path transform="matrix(1,0,0,-1,527.8134,611.48989)" d="M0 0V-10.225H23.268V-26.448H0V-36.947H28.266V-55.17H-19.224V18.088H28.266V0Z" fill="#3566b1"/>
<path transform="matrix(1,0,0,-1,633.1953,666.6599)" d="M0 0-18.541 27.857V0H-37.947V73.258H-18.541V45.945L-1.546 73.258H20.813L-1.636 37.539 23.585 0Z" fill="#404041"/>
<path transform="matrix(1,0,0,-1,682.9638,611.48989)" d="M0 0V-10.225H23.268V-26.448H0V-36.947H28.266V-55.17H-19.224V18.088H28.266V0Z" fill="#404041"/>
<path transform="matrix(1,0,0,-1,739.1894,635.03)" d="M0 0-22.586 41.628H-.544L9.682 20.404 19.861 41.628H41.946L19.315 0V-31.63H0Z" fill="#404041"/>
<path transform="matrix(1,0,0,-1,280.2988,724.5329)" d="M0 0 6.584 4.628C8.389 1.729 11.008 .407 14.541 .407 18.406 .407 20.998 1.982 20.998 4.169 20.998 7.169 16.092 9.534 11.796 11.669 7.194 13.956 2.137 16.474 2.137 23.008 2.137 30.101 8.135 34.778 15.66 34.778 21.254 34.778 25.88 32.464 27.735 27.507L21.661 23.261C20.44 25.702 18.075 26.693 15.788 26.693 12.712 26.693 10.423 24.913 10.423 22.804 10.423 20.363 13.525 19.524 18.229 17.312 25.016 14.109 29.286 10.651 29.286 4.347 29.286-3.128 23.186-7.881 14.415-7.881 7.703-7.881 2.745-5.084 0 0" fill="#3566b1"/>
<path transform="matrix(1,0,0,-1,354.7822,716.4499)" d="M0 0V25.831H8.288V.027C8.288-4.447 11.821-7.701 15.786-7.701 19.753-7.701 23.338-4.422 23.338 .027V25.831H31.624V0C31.624-9.277 24.531-16.039 15.811-16.039 7.093-16.039 0-9.277 0 0" fill="#3566b1"/>
<path transform="matrix(1,0,0,-1,454.3017,704.3981)" d="M0 0C0 3.102-2.771 5.617-6.179 5.617H-12.33V-5.72L-6.179-5.745C-2.771-5.771 0-3.179 0 0M-20.567 13.779H-6.179C1.753 13.779 8.236 7.551 8.236-.077 8.236-7.678 1.753-13.88-6.179-13.88H-12.33V-27.202H-20.567Z" fill="#3566b1"/>
<path transform="matrix(1,0,0,-1,528.3027,704.3981)" d="M0 0C0 3.102-2.771 5.617-6.179 5.617H-12.33V-5.72L-6.179-5.745C-2.771-5.771 0-3.179 0 0M-20.568 13.779H-6.179C1.753 13.779 8.236 7.551 8.236-.077 8.236-7.678 1.753-13.88-6.179-13.88H-12.33V-27.202H-20.568Z" fill="#3566b1"/>
<path transform="matrix(1,0,0,-1,606.4453,723.4147)" d="M0 0V-8.186H-24.71V32.796H-16.474V0Z" fill="#3566b1"/>
<path transform="matrix(1,0,0,-1,653.6806,714.00857)" d="M0 0-12.685 23.39H-3.382L4.093 9.153 11.567 23.39H20.897L8.186 0V-17.592H0Z" fill="#3566b1"/>
</g>
</g>
</svg>
